<?xml version="1.0" encoding="UTF-8"?>
<svg id="Layer_1" data-name="Layer 1" xmlns="http://www.w3.org/2000/svg" xmlns:xlink="http://www.w3.org/1999/xlink" viewBox="0 0 705.83 180.47">
  <defs>
    <style>
      .cls-1 {
        fill: url(#linear-gradient);
      }

      .cls-1, .cls-2 {
        stroke-width: 0px;
      }

      .cls-2 {
        fill: #51bfa4;
      }
    </style>
    <linearGradient id="linear-gradient" x1="-17.87" y1="734.64" x2="-17.87" y2="583.84" gradientTransform="translate(108.53 1365.39) scale(1.92 -1.92)" gradientUnits="userSpaceOnUse">
      <stop offset="0" stop-color="#6cc28b"/>
      <stop offset="1" stop-color="#3ab2b7"/>
    </linearGradient>
  </defs>
  <g id="text-logo">
    <g id="text-logo-path-0">
      <path class="cls-2" d="M189.94,179.62h14.37l-22.4-59.17h-15.22l-22.4,59.17h14.37l4.15-10.99h22.98l4.15,10.99ZM181.32,156.8h-14.02l7.01-18.52,7.01,18.52ZM239.57,156.8v22.82h14.37v-22.82l22.82-36.35h-15.22l-14.79,23.59-14.79-23.59h-15.22l22.82,36.35ZM354.7,179.62h15.22l16.48-59.17h-14.37l-10.41,37.37-9.87-37.37h-14.37l-9.89,37.37-10.39-37.37h-14.37l16.48,59.17h15.22l10.14-34.66,10.14,34.66ZM436.1,180.47c20.19,0,30.34-9.8,30.34-30.51s-9.45-30.35-30.34-30.35-30.53,9.47-30.53,30.35,9.57,30.51,30.53,30.51ZM419.94,149.96c0-12.43,5.07-18.52,16.16-18.52s15.96,5.92,15.96,18.52-4.9,18.67-15.96,18.67-16.16-5.84-16.16-18.67ZM492.39,179.62h14.37v-19.44h10.74l11.24,19.44h15.22l-12.01-20.79c7.28-2.54,10.91-8.8,10.91-18.69,0-13.1-6.59-19.69-19.79-19.69h-30.68v59.17ZM522.99,148.34h-16.23v-16.06h16.23c3.46,0,5.49,2.61,5.49,7.95s-1.86,8.11-5.49,8.11ZM569.91,179.62h14.37v-21.21l3.21-3.13,21.31,24.34h17.75l-29.51-33.64,26.13-25.53h-17.75l-21.13,20.63v-20.63h-14.37v59.17ZM679.13,180.47c14.12,0,21.46-3.04,24.51-8.53,1.44-2.8,2.19-6.34,2.19-10.74,0-11.51-5.32-17.08-20.29-17.08h-6.42c-5.92,0-9.3,0-10.99-1.69-.77-.77-1.19-2.11-1.19-3.98,0-3.8,1.02-5.57,4.48-6.42,1.69-.42,4.32-.6,7.78-.6,5,0,7.53.42,9.22,3.04.85,1.27,1.27,3.3,1.27,5.92h14.45c0-15.54-8.45-20.79-24.94-20.79-14.12,0-21.46,3.04-24.42,8.53-1.54,2.8-2.29,6.34-2.29,10.74,0,11.51,5.32,17.08,20.29,17.08h6.34c5.67,0,9.3.35,11.07,2.04.77.85,1.19,2.02,1.19,3.63,0,3.8-1.02,5.49-4.4,6.34-1.77.42-4.4.67-7.86.67-6.09,0-9.13-.5-10.82-3.04-.94-1.27-1.36-3.23-1.36-5.92h-14.45c0,10.72,4.13,16.48,11.91,18.92,3.8,1.27,8.7,1.86,14.72,1.86Z"/>
    </g>
  </g>
  <g id="tagline-83fdfb2a-8044-4ad8-b129-1c6be14b1c43-logo">
    <g id="tagline-83fdfb2a-8044-4ad8-b129-1c6be14b1c43-logo-path-0">
      <path class="cls-1" d="M0,179.62h42.25v-51.32h44.74c41.52,0,61.38-20.01,61.38-64.41S128.99,0,86.99,0H0v179.62ZM86.99,92.38h-44.74v-56.45h43.99c13.18,0,19.9,8.72,19.9,28.23s-6.46,28.23-19.15,28.23Z"/>
    </g>
  </g>
</svg>