<?xml version="1.0" encoding="UTF-8"?>
<svg id="Layer_1" data-name="Layer 1" xmlns="http://www.w3.org/2000/svg" xmlns:xlink="http://www.w3.org/1999/xlink" viewBox="0 0 1280 1024">
  <defs>
    <style>
      .cls-1 {
        fill: url(#linear-gradient);
      }

      .cls-1, .cls-2, .cls-3 {
        stroke-width: 0px;
      }

      .cls-2 {
        fill: #3ec9a8;
      }

      .cls-3 {
        fill: #fff;
      }
    </style>
    <linearGradient id="linear-gradient" x1="-106.69" y1="1066.71" x2="-106.69" y2="891.71" gradientTransform="translate(428.2 2431.22) scale(1.92 -1.92)" gradientUnits="userSpaceOnUse">
      <stop offset="0" stop-color="#42e695"/>
      <stop offset="1" stop-color="#3bb2b8"/>
    </linearGradient>
  </defs>
  <g id="background-logo">
    <rect class="cls-3" width="1280" height="1024"/>
  </g>
  <g id="text-logo">
    <g id="text-logo-path-0">
      <path class="cls-2" d="m332.97,644.63h14.37l-22.4-59.17h-15.22l-22.4,59.17h14.37l4.15-10.99h22.98l4.15,10.99Zm-8.63-22.82h-14.02l7.01-18.52,7.01,18.52Zm58.25,0v22.82h14.37v-22.82l22.82-36.35h-15.22l-14.79,23.59-14.79-23.59h-15.22l22.82,36.35Zm115.13,22.82h15.22l16.48-59.17h-14.37l-10.41,37.37-9.87-37.37h-14.37l-9.89,37.37-10.39-37.37h-14.37l16.48,59.17h15.22l10.14-34.66,10.14,34.66Zm81.4.85c20.19,0,30.34-9.8,30.34-30.51s-9.45-30.35-30.34-30.35-30.53,9.47-30.53,30.35,9.57,30.51,30.53,30.51Zm-16.16-30.51c0-12.43,5.07-18.52,16.16-18.52s15.96,5.92,15.96,18.52-4.9,18.67-15.96,18.67-16.16-5.84-16.16-18.67Zm72.45,29.66h14.37v-19.44h10.74l11.24,19.44h15.22l-12.01-20.79c7.28-2.54,10.91-8.8,10.91-18.69,0-13.1-6.59-19.69-19.79-19.69h-30.68v59.17Zm30.6-31.28h-16.23v-16.06h16.23c3.46,0,5.49,2.61,5.49,7.95s-1.86,8.11-5.49,8.11Zm46.91,31.28h14.37v-21.21l3.21-3.13,21.31,24.34h17.75l-29.51-33.64,26.13-25.53h-17.75l-21.13,20.63v-20.63h-14.37v59.17Zm109.22.85c14.12,0,21.46-3.04,24.51-8.53,1.44-2.8,2.19-6.34,2.19-10.74,0-11.51-5.32-17.08-20.29-17.08h-6.42c-5.92,0-9.3,0-10.99-1.69-.77-.77-1.19-2.11-1.19-3.98,0-3.8,1.02-5.57,4.48-6.42,1.69-.42,4.32-.6,7.78-.6,5,0,7.53.42,9.22,3.04.85,1.27,1.27,3.3,1.27,5.92h14.45c0-15.54-8.45-20.79-24.94-20.79-14.12,0-21.46,3.04-24.42,8.53-1.54,2.8-2.29,6.34-2.29,10.74,0,11.51,5.32,17.08,20.29,17.08h6.34c5.67,0,9.3.35,11.07,2.04.77.85,1.19,2.02,1.19,3.63,0,3.8-1.02,5.49-4.4,6.34-1.77.42-4.4.67-7.86.67-6.09,0-9.13-.5-10.82-3.04-.94-1.27-1.36-3.23-1.36-5.92h-14.45c0,10.72,4.13,16.48,11.91,18.92,3.8,1.27,8.7,1.86,14.72,1.86Z"/>
    </g>
  </g>
  <g id="tagline-83fdfb2a-8044-4ad8-b129-1c6be14b1c43-logo">
    <g id="tagline-83fdfb2a-8044-4ad8-b129-1c6be14b1c43-logo-path-0">
      <path class="cls-1" d="m134.36,643.69h50.62v-59.56h53.6c49.74,0,73.54-23.23,73.54-74.75s-23.23-74.14-73.54-74.14h-104.22v208.45Zm104.22-101.24h-53.6v-65.51h52.7c15.79,0,23.84,10.12,23.84,32.76s-7.74,32.76-22.94,32.76Z"/>
    </g>
  </g>
</svg>